<svg width="64" height="64" viewBox="0 0 64 64" xmlns="http://www.w3.org/2000/svg">
  <defs>
    <linearGradient id="g" x1="0" y1="0" x2="1" y2="1">
      <stop offset="0%" stop-color="#f97316"/>
      <stop offset="50%" stop-color="#ea580c"/>
      <stop offset="100%" stop-color="#0d9488"/>
    </linearGradient>
  </defs>
  <rect width="64" height="64" rx="16" fill="url(#g)"/>
  <path d="M20 24a4 4 0 0 1 4-4h2.5l1.8-2.7A2 2 0 0 1 30 16.4h4a2 2 0 0 1 1.7.9L37.5 20H40a4 4 0 0 1 4 4v14a4 4 0 0 1-4 4H24a4 4 0 0 1-4-4V24Z" fill="white"/>
  <circle cx="32" cy="31" r="6" fill="url(#g)"/>
</svg>
